<svg width="143" height="143" viewBox="0 0 143 143" fill="none" xmlns="http://www.w3.org/2000/svg">
<path d="M71 6C86.3247 6 100.411 11.3034 111.523 20.1748L83.6046 48.0933C79.8656 46.0351 75.5696 44.8637 71 44.8637C56.5432 44.8637 44.8236 56.5834 44.8235 71.0402C44.8235 85.4971 56.5431 97.2167 71 97.2167C85.4569 97.2167 97.1765 85.4971 97.1765 71.0402C97.1765 66.5 96.0201 62.2301 93.9866 58.508L121.911 30.5841C130.731 41.6797 136 55.7245 136 71C136 106.899 106.899 136 71 136C35.1015 136 6 106.899 6 71C6 35.1015 35.1015 6 71 6Z" fill="black"/>
</svg>
