<svg width="30" height="30" viewBox="0 0 30 30" fill="none" xmlns="http://www.w3.org/2000/svg">
<path d="M15 0C18.5365 0 21.787 1.22386 24.3514 3.27111L17.9087 9.71384C17.0459 9.23888 16.0545 8.96856 15 8.96856C11.6638 8.96856 8.95929 11.6731 8.95928 15.0093C8.95928 18.3455 11.6638 21.05 15 21.05C18.3362 21.05 21.0407 18.3455 21.0407 15.0093C21.0407 13.9615 20.7739 12.9762 20.3046 12.1172L26.7486 5.67325C28.784 8.23377 30 11.4749 30 15C30 23.2843 23.2843 30 15 30C6.71573 30 0 23.2843 0 15C0 6.71573 6.71573 0 15 0Z" fill="url(#paint0_linear_370_3)"/>
<defs>
<linearGradient id="paint0_linear_370_3" x1="15" y1="0" x2="15" y2="30" gradientUnits="userSpaceOnUse">
<stop stop-color="#7AFFBD"/>
<stop offset="1" stop-color="#7EA3FF"/>
</linearGradient>
</defs>
</svg>
